<?xml version="1.0" encoding="utf-8"?>
<!-- Generator: Adobe Illustrator 25.2.3, SVG Export Plug-In . SVG Version: 6.00 Build 0)  -->
<svg version="1.1" id="Layer_1" xmlns="http://www.w3.org/2000/svg" xmlns:xlink="http://www.w3.org/1999/xlink" x="0px" y="0px"
	 viewBox="0 0 20 20" style="enable-background:new 0 0 20 20;" xml:space="preserve">
<style type="text/css">
	.st0{fill:#FFFFFF;}
	.st1{fill:#231F20;}
	.st2{fill:#D9D8D6;}
	.st3{fill:#F3F2F2;}
</style>
<path d="M10,1c-5,0-9,4-9,9c0,5,4,9,9,9s9-4,9-9C19,5,15,1,10,1z M10,10c-2.3,0-4.2,1.9-4.2,4.2c0,2.2,1.8,4,4,4.2
	c-4.5-0.1-8.1-3.8-8.1-8.3c0-4.6,3.7-8.3,8.3-8.3c2.3,0,4.2,1.9,4.2,4.2C14.2,8.1,12.3,10,10,10z"/>
</svg>
