<?xml version="1.0" encoding="utf-8"?>
<!-- Generator: Adobe Illustrator 25.2.3, SVG Export Plug-In . SVG Version: 6.00 Build 0)  -->
<svg version="1.1" id="Layer_1" xmlns="http://www.w3.org/2000/svg" xmlns:xlink="http://www.w3.org/1999/xlink" x="0px" y="0px"
	 viewBox="0 0 569.7 99.2" style="enable-background:new 0 0 569.7 99.2;" xml:space="preserve">
<style type="text/css">
	.st0{fill:#FFFFFF;}
	.st1{fill:#231F20;}
	.st2{fill:#D9D8D6;}
	.st3{fill:#F3F2F2;}
</style>
<g>
	<g>
		<path d="M77.3,97.1H55.4L41,52.2l-8.1,45H0L18,0h34.5l12.9,40.3L80.1,0h34.5l18,97.1H99.9l-8.1-45L77.3,97.1z"/>
		<path d="M147.6,86.7c-6.6-6.6-10.3-15.2-10.3-27.7V0h33.2v57.1c0,7.6,4.5,11.2,10.8,11.2c6.2,0,10.8-3.6,10.8-11.2V0h33.2v59
			c0,12.5-3.7,21.1-10.3,27.7c-8.1,7.7-19.5,12.5-33.8,12.5S155.7,94.4,147.6,86.7z"/>
		<path d="M231.2,0h71.4v30.9h-19.1v66.2h-33.2V30.9h-19.1V0z"/>
		<path d="M318.7,86.7c-6.6-6.6-10.3-15.2-10.3-27.7V0h33.2v57.1c0,7.6,4.5,11.2,10.8,11.2c6.2,0,10.8-3.6,10.8-11.2V0h33.2v59
			c0,12.5-3.7,21.1-10.3,27.7c-8.1,7.7-19.5,12.5-33.8,12.5C338.1,99.2,326.8,94.4,318.7,86.7z"/>
		<path d="M430,97.1h-33.6L431.1,0H468l34.8,97.1H469l-4.9-13.8h-29.2L430,97.1z M440.7,62h17.8l-8.9-24.7L440.7,62z"/>
		<path d="M540.3,66.2h29.4v30.9H507V0h33.2V66.2z"/>
	</g>
</g>
</svg>
